<?xml version="1.0" encoding="UTF-8"?>
<svg id="Ebene_1" data-name="Ebene 1" xmlns="http://www.w3.org/2000/svg" viewBox="0 0 36.15 71.33">
  <defs>
    <style>
      .cls-1 {
        fill: #fff;
      }
    </style>
  </defs>
  <path class="cls-1" d="M17.11,37.24c-.65-.96-1.62-3.97-2.03-5.26l-.16-.48L4.33,1.14l.24-1.14,10.86,31.38c.25.67,1.13,2.97,1.92,4.18v2.08s-.25-.39-.25-.39Z"/>
  <path class="cls-1" d="M17.11,42.13c-.65-.96-1.62-3.97-2.03-5.25l-.16-.48L3.71,4.17l.24-1.14,11.48,33.23c.25.67,1.13,2.96,1.92,4.18v2.08s-.25-.39-.25-.39Z"/>
  <path class="cls-1" d="M17.11,46.93c-.65-.97-1.62-3.98-2.04-5.27l-.15-.46L3.09,7.18l.24-1.14,12.1,35.02c.25.67,1.13,2.96,1.92,4.18v2.08s-.25-.39-.25-.39Z"/>
  <path class="cls-1" d="M17.11,51.74c-.65-.96-1.62-3.97-2.03-5.25l-.16-.48L2.47,10.2l.24-1.13,12.72,36.81c.32.86,1.16,3,1.92,4.18v2.08s-.25-.39-.25-.39Z"/>
  <path class="cls-1" d="M17.11,56.54c-.65-.96-1.62-3.97-2.03-5.25l-.16-.48L1.85,13.21l.24-1.13,13.34,38.6c.32.86,1.16,3,1.92,4.18v2.08s-.25-.39-.25-.39Z"/>
  <path class="cls-1" d="M17.11,61.34c-.65-.96-1.62-3.97-2.03-5.25l-.16-.48L1.24,16.22l.24-1.13,13.96,40.38c.25.67,1.14,2.96,1.92,4.18v2.08s-.25-.39-.25-.39Z"/>
  <path class="cls-1" d="M17.11,66.14c-.65-.96-1.62-3.97-2.03-5.25l-.16-.48L.62,19.23l.24-1.12,14.58,42.17c.32.87,1.16,3,1.92,4.18v2.08s-.25-.39-.25-.39Z"/>
  <path class="cls-1" d="M17.11,70.94c-.66-.97-1.62-3.99-2.04-5.27l-.15-.46L0,22.24l.24-1.12,15.2,43.96c.32.87,1.16,3,1.92,4.18v2.08s-.25-.39-.25-.39Z"/>
  <path class="cls-1" d="M18.79,35.55c.83-1.26,1.75-3.7,1.93-4.17L31.69,0l.13,1.16-10.59,30.34-.15.46c-.41,1.29-1.38,4.31-2.04,5.28l-.26.39v-2.08Z"/>
  <path class="cls-1" d="M18.79,40.44c.83-1.26,1.75-3.7,1.93-4.17L32.31,3.04l.13,1.16-11.2,32.19-.15.46c-.41,1.29-1.38,4.31-2.04,5.28l-.26.39v-2.08Z"/>
  <path class="cls-1" d="M18.79,45.24c.8-1.23,1.68-3.5,1.93-4.17L32.93,6.05l.13,1.16-11.82,33.98-.14.44c-.41,1.29-1.38,4.32-2.04,5.29l-.26.39v-2.08Z"/>
  <path class="cls-1" d="M18.79,50.04c.8-1.23,1.68-3.5,1.93-4.17l12.83-36.8.13,1.16-12.44,35.77-.15.46c-.41,1.29-1.38,4.31-2.03,5.27l-.26.39v-2.08Z"/>
  <path class="cls-1" d="M18.79,54.85c.8-1.22,1.68-3.5,1.93-4.17l13.45-38.59.13,1.15-13.06,37.57-.15.46c-.41,1.29-1.38,4.31-2.04,5.28l-.26.39v-2.08Z"/>
  <path class="cls-1" d="M18.79,59.65c.8-1.22,1.68-3.5,1.93-4.17l14.07-40.38.13,1.15-13.68,39.36-.15.46c-.41,1.29-1.38,4.31-2.04,5.28l-.26.39v-2.08Z"/>
  <path class="cls-1" d="M18.79,64.45c.8-1.22,1.68-3.5,1.93-4.17l14.69-42.17.13,1.15-14.3,41.15-.15.46c-.41,1.29-1.38,4.31-2.04,5.27l-.26.39v-2.08Z"/>
  <path class="cls-1" d="M18.79,69.25c.8-1.22,1.68-3.5,1.93-4.17l15.31-43.96.12,1.15-14.92,42.94-.14.44c-.41,1.29-1.38,4.32-2.04,5.3l-.26.39v-2.08Z"/>
</svg>