<?xml version="1.0" encoding="UTF-8"?>
<svg id="Ebene_1" data-name="Ebene 1" xmlns="http://www.w3.org/2000/svg" viewBox="0 0 304.56 71.33">
  <defs>
    <style>
      .cls-1 {
        fill: #fff;
      }
    </style>
  </defs>
  <path class="cls-1" d="M147.14,37.24c-.65-.96-1.62-3.97-2.03-5.26l-.16-.48-10.59-30.37.24-1.14,10.86,31.38c.25.67,1.13,2.97,1.92,4.18v2.08s-.25-.39-.25-.39Z"/>
  <path class="cls-1" d="M147.14,42.13c-.65-.96-1.62-3.97-2.03-5.25l-.16-.48-11.21-32.23.24-1.14,11.48,33.23c.25.67,1.13,2.96,1.92,4.18v2.08s-.25-.39-.25-.39Z"/>
  <path class="cls-1" d="M147.14,46.93c-.65-.97-1.62-3.98-2.04-5.27l-.15-.46-11.83-34.02.24-1.14,12.1,35.02c.25.67,1.13,2.96,1.92,4.18v2.08s-.25-.39-.25-.39Z"/>
  <path class="cls-1" d="M147.14,51.74c-.65-.96-1.62-3.97-2.03-5.25l-.16-.48-12.45-35.81.24-1.13,12.72,36.81c.32.86,1.16,3,1.92,4.18v2.08s-.25-.39-.25-.39Z"/>
  <path class="cls-1" d="M147.14,56.54c-.65-.96-1.62-3.97-2.03-5.25l-.16-.48-13.07-37.6.24-1.13,13.34,38.6c.32.86,1.16,3,1.92,4.18v2.08s-.25-.39-.25-.39Z"/>
  <path class="cls-1" d="M147.14,61.34c-.65-.96-1.62-3.97-2.03-5.25l-.16-.48-13.68-39.39.24-1.13,13.96,40.38c.25.67,1.14,2.96,1.92,4.18v2.08s-.25-.39-.25-.39Z"/>
  <path class="cls-1" d="M147.14,66.14c-.65-.96-1.62-3.97-2.03-5.25l-.16-.48-14.3-41.18.24-1.12,14.58,42.17c.32.87,1.16,3,1.92,4.18v2.08s-.25-.39-.25-.39Z"/>
  <path class="cls-1" d="M147.14,70.94c-.66-.97-1.62-3.99-2.04-5.27l-.15-.46-14.92-42.97.24-1.12,15.2,43.96c.32.87,1.16,3,1.92,4.18v2.08s-.25-.39-.25-.39Z"/>
  <path class="cls-1" d="M148.82,35.55c.83-1.26,1.75-3.7,1.93-4.17L161.72,0l.13,1.16-10.59,30.34-.15.46c-.41,1.29-1.38,4.31-2.04,5.28l-.26.39v-2.08Z"/>
  <path class="cls-1" d="M148.82,40.44c.83-1.26,1.75-3.7,1.93-4.17l11.59-33.22.13,1.16-11.2,32.19-.15.46c-.41,1.29-1.38,4.31-2.04,5.28l-.26.39v-2.08Z"/>
  <path class="cls-1" d="M148.82,45.24c.8-1.23,1.68-3.5,1.93-4.17l12.21-35.01.13,1.16-11.82,33.98-.14.44c-.41,1.29-1.38,4.32-2.04,5.29l-.26.39v-2.08Z"/>
  <path class="cls-1" d="M148.82,50.04c.8-1.23,1.68-3.5,1.93-4.17l12.83-36.8.13,1.16-12.44,35.77-.15.46c-.41,1.29-1.38,4.31-2.03,5.27l-.26.39v-2.08Z"/>
  <path class="cls-1" d="M148.82,54.85c.8-1.22,1.68-3.5,1.93-4.17l13.45-38.59.13,1.15-13.06,37.57-.15.46c-.41,1.29-1.38,4.31-2.04,5.28l-.26.39v-2.08Z"/>
  <path class="cls-1" d="M148.82,59.65c.8-1.22,1.68-3.5,1.93-4.17l14.07-40.38.13,1.15-13.68,39.36-.15.46c-.41,1.29-1.38,4.31-2.04,5.28l-.26.39v-2.08Z"/>
  <path class="cls-1" d="M148.82,64.45c.8-1.22,1.68-3.5,1.93-4.17l14.69-42.17.13,1.15-14.3,41.15-.15.46c-.41,1.29-1.38,4.31-2.04,5.27l-.26.39v-2.08Z"/>
  <path class="cls-1" d="M148.82,69.25c.8-1.22,1.68-3.5,1.93-4.17l15.31-43.96.12,1.15-14.92,42.94-.14.44c-.41,1.29-1.38,4.32-2.04,5.3l-.26.39v-2.08Z"/>
  <polygon class="cls-1" points="176.47 50.75 176.47 45.67 166.31 33.89 169.25 33.89 177.65 43.67 186.04 33.89 188.97 33.89 178.94 45.62 178.94 50.75 176.47 50.75"/>
  <path class="cls-1" d="M206.13,50.75l-2.64-4.15h-16.1l-2.62,4.15h-2.86l9.62-15.35c.64-1.02,1.13-1.51,2.85-1.51h2.08c1.46,0,2.22.39,2.92,1.51l9.62,15.35h-2.86ZM202.08,44.34l-4.56-7.08c-.49-.76-.92-.99-1.82-.99h-.78c-1,0-1.41.35-1.82.99l-4.56,7.09h13.53Z"/>
  <path class="cls-1" d="M214.98,50.75c-3.46,0-5.21-1.43-5.21-4.26v-8.34c0-2.83,1.75-4.26,5.21-4.26h16.77v2.37h-16.77c-1.25,0-2.74.38-2.74,2.2v7.72c0,1.48.9,2.2,2.74,2.2h16.83v2.37h-16.83Z"/>
  <polygon class="cls-1" points="253.17 50.75 253.17 43.11 236.68 43.11 236.68 50.75 234.21 50.75 234.21 33.89 236.68 33.89 236.68 40.72 253.17 40.72 253.17 33.89 255.64 33.89 255.64 50.75 253.17 50.75"/>
  <polygon class="cls-1" points="267.34 50.75 267.34 36.26 256.94 36.26 256.94 33.89 279.97 33.89 279.97 36.26 269.79 36.26 269.79 50.75 267.34 50.75"/>
  <path class="cls-1" d="M.6,50.75v-2.37h18.02c1.62,0,2.41-.57,2.41-1.75v-1.49c0-1.17-.79-1.75-2.41-1.75H4.9c-3.25,0-4.9-1.2-4.9-3.56v-2.13c0-2.54,1.65-3.83,4.9-3.83h18.02v2.37H4.9c-1.63,0-2.43.54-2.43,1.67v1.47c0,.71.25,1.64,2.43,1.64h13.72c3.22,0,4.86,1.3,4.86,3.87v1.94c0,2.59-1.63,3.91-4.86,3.91H.6Z"/>
  <path class="cls-1" d="M281.68,50.75v-2.37h18.02c1.62,0,2.41-.57,2.41-1.75v-1.49c0-1.17-.79-1.75-2.41-1.75h-13.72c-3.25,0-4.9-1.2-4.9-3.56v-2.13c0-2.54,1.65-3.83,4.9-3.83h18.02v2.37h-18.02c-1.63,0-2.43.54-2.43,1.67v1.47c0,.71.25,1.64,2.43,1.64h13.72c3.22,0,4.86,1.3,4.86,3.87v1.94c0,2.59-1.64,3.91-4.86,3.91h-18.02Z"/>
  <rect class="cls-1" x="26.86" y="33.89" width="2.47" height="16.86"/>
  <path class="cls-1" d="M38.92,50.75c-3.46,0-5.21-1.42-5.21-4.22v-12.64h2.47v12.33c0,1.45.9,2.16,2.74,2.16h16.91v2.37h-16.91Z"/>
  <path class="cls-1" d="M62.55,50.75c-1.73,0-2.2-.46-2.85-1.51l-9.62-15.35h2.86l8.49,13.5c.43.67.81.99,1.81.99h.56c.9,0,1.34-.24,1.82-.97l8.56-13.52h2.84l-9.62,15.37c-.69,1.1-1.44,1.48-2.89,1.48h-1.96Z"/>
  <path class="cls-1" d="M82.99,50.75c-3.46,0-5.21-1.43-5.21-4.26v-8.34c0-2.83,1.75-4.26,5.21-4.26h17.82v2.37h-17.82c-1.25,0-2.74.38-2.74,2.2v2.57h20.52v2.37h-20.52v2.78c0,1.48.9,2.2,2.74,2.2h17.89v2.37h-17.89Z"/>
  <path class="cls-1" d="M125.4,50.75l-6.86-6.6h-11.59v6.6h-2.47v-16.86h18.5c3.31,0,4.98,1.43,4.98,4.26v1.49c0,2.92-1.68,4.4-4.98,4.4h-1.2l7.06,6.71h-3.45ZM123.05,41.98c1.72,0,2.55-.72,2.55-2.2v-1.4c0-1.43-.86-2.12-2.62-2.12h-16.03v5.72h16.09Z"/>
</svg>